<svg xmlns="http://www.w3.org/2000/svg" width="900" height="560" viewBox="0 0 900 560">
<rect width="100%" height="100%" fill="white"/>
<text x="82" y="30" font-family="Arial" font-size="20" font-weight="700">LR-SDP Rank Ablation</text>
<line x1="82" y1="484" x2="690" y2="484" stroke="#333" stroke-width="1.2"/>
<line x1="82" y1="54" x2="82" y2="484" stroke="#333" stroke-width="1.2"/>
<line x1="82.0" y1="484" x2="82.0" y2="489" stroke="#333"/>
<text x="82.0" y="508" text-anchor="middle" font-family="Arial" font-size="12">2</text>
<line x1="234.0" y1="484" x2="234.0" y2="489" stroke="#333"/>
<text x="234.0" y="508" text-anchor="middle" font-family="Arial" font-size="12">3.5</text>
<line x1="386.0" y1="484" x2="386.0" y2="489" stroke="#333"/>
<text x="386.0" y="508" text-anchor="middle" font-family="Arial" font-size="12">5</text>
<line x1="538.0" y1="484" x2="538.0" y2="489" stroke="#333"/>
<text x="538.0" y="508" text-anchor="middle" font-family="Arial" font-size="12">6.5</text>
<line x1="690.0" y1="484" x2="690.0" y2="489" stroke="#333"/>
<text x="690.0" y="508" text-anchor="middle" font-family="Arial" font-size="12">8</text>
<line x1="77" y1="484.0" x2="82" y2="484.0" stroke="#333"/>
<line x1="82" y1="484.0" x2="690" y2="484.0" stroke="#e8e8e8"/>
<text x="72" y="488.0" text-anchor="end" font-family="Arial" font-size="12">2.5e+03</text>
<line x1="77" y1="376.5" x2="82" y2="376.5" stroke="#333"/>
<line x1="82" y1="376.5" x2="690" y2="376.5" stroke="#e8e8e8"/>
<text x="72" y="380.5" text-anchor="end" font-family="Arial" font-size="12">3.4e+03</text>
<line x1="77" y1="269.0" x2="82" y2="269.0" stroke="#333"/>
<line x1="82" y1="269.0" x2="690" y2="269.0" stroke="#e8e8e8"/>
<text x="72" y="273.0" text-anchor="end" font-family="Arial" font-size="12">4.2e+03</text>
<line x1="77" y1="161.5" x2="82" y2="161.5" stroke="#333"/>
<line x1="82" y1="161.5" x2="690" y2="161.5" stroke="#e8e8e8"/>
<text x="72" y="165.5" text-anchor="end" font-family="Arial" font-size="12">5.1e+03</text>
<line x1="77" y1="54.0" x2="82" y2="54.0" stroke="#333"/>
<line x1="82" y1="54.0" x2="690" y2="54.0" stroke="#e8e8e8"/>
<text x="72" y="58.0" text-anchor="end" font-family="Arial" font-size="12">5.9e+03</text>
<text x="386.0" y="538" text-anchor="middle" font-family="Arial" font-size="14">rank r</text>
<text transform="translate(22,269.0) rotate(-90)" text-anchor="middle" font-family="Arial" font-size="14">x'Wx</text>
<polyline fill="none" stroke="#1f77b4" stroke-width="2.2" points="82.00,460.96 284.67,437.36 487.33,438.26 690.00,439.17"/>
<circle cx="82.0" cy="460.9642857142857" r="3.2" fill="#1f77b4"/>
<circle cx="284.66666666666663" cy="437.35728452169894" r="3.2" fill="#1f77b4"/>
<circle cx="487.3333333333333" cy="438.2647198376582" r="3.2" fill="#1f77b4"/>
<circle cx="690.0" cy="439.17215515361755" r="3.2" fill="#1f77b4"/>
<line x1="718" y1="54" x2="738" y2="54" stroke="#1f77b4" stroke-width="2.2"/>
<text x="746" y="58" font-family="Arial" font-size="12">T=1000</text>
<polyline fill="none" stroke="#d62728" stroke-width="2.2" points="82.00,125.62 284.67,81.61 487.33,80.76 690.00,77.04"/>
<circle cx="82.0" cy="125.61651748368851" r="3.2" fill="#d62728"/>
<circle cx="284.66666666666663" cy="81.60549626815911" r="3.2" fill="#d62728"/>
<circle cx="487.3333333333333" cy="80.76333207250768" r="3.2" fill="#d62728"/>
<circle cx="690.0" cy="77.03571428571428" r="3.2" fill="#d62728"/>
<line x1="718" y1="76" x2="738" y2="76" stroke="#d62728" stroke-width="2.2"/>
<text x="746" y="80" font-family="Arial" font-size="12">T=2000</text>
</svg>
