<svg xmlns="http://www.w3.org/2000/svg" width="900" height="560" viewBox="0 0 900 560">
<rect width="100%" height="100%" fill="white"/>
<text x="82" y="30" font-family="Arial" font-size="20" font-weight="700">Final Binary Objective vs T</text>
<line x1="82" y1="484" x2="690" y2="484" stroke="#333" stroke-width="1.2"/>
<line x1="82" y1="54" x2="82" y2="484" stroke="#333" stroke-width="1.2"/>
<line x1="82.0" y1="484" x2="82.0" y2="489" stroke="#333"/>
<text x="82.0" y="508" text-anchor="middle" font-family="Arial" font-size="12">200</text>
<line x1="234.0" y1="484" x2="234.0" y2="489" stroke="#333"/>
<text x="234.0" y="508" text-anchor="middle" font-family="Arial" font-size="12">650</text>
<line x1="386.0" y1="484" x2="386.0" y2="489" stroke="#333"/>
<text x="386.0" y="508" text-anchor="middle" font-family="Arial" font-size="12">1.1e+03</text>
<line x1="538.0" y1="484" x2="538.0" y2="489" stroke="#333"/>
<text x="538.0" y="508" text-anchor="middle" font-family="Arial" font-size="12">1.6e+03</text>
<line x1="690.0" y1="484" x2="690.0" y2="489" stroke="#333"/>
<text x="690.0" y="508" text-anchor="middle" font-family="Arial" font-size="12">2.0e+03</text>
<line x1="77" y1="484.0" x2="82" y2="484.0" stroke="#333"/>
<line x1="82" y1="484.0" x2="690" y2="484.0" stroke="#e8e8e8"/>
<text x="72" y="488.0" text-anchor="end" font-family="Arial" font-size="12">211</text>
<line x1="77" y1="376.5" x2="82" y2="376.5" stroke="#333"/>
<line x1="82" y1="376.5" x2="690" y2="376.5" stroke="#e8e8e8"/>
<text x="72" y="380.5" text-anchor="end" font-family="Arial" font-size="12">1.7e+03</text>
<line x1="77" y1="269.0" x2="82" y2="269.0" stroke="#333"/>
<line x1="82" y1="269.0" x2="690" y2="269.0" stroke="#e8e8e8"/>
<text x="72" y="273.0" text-anchor="end" font-family="Arial" font-size="12">3.1e+03</text>
<line x1="77" y1="161.5" x2="82" y2="161.5" stroke="#333"/>
<line x1="82" y1="161.5" x2="690" y2="161.5" stroke="#e8e8e8"/>
<text x="72" y="165.5" text-anchor="end" font-family="Arial" font-size="12">4.6e+03</text>
<line x1="77" y1="54.0" x2="82" y2="54.0" stroke="#333"/>
<line x1="82" y1="54.0" x2="690" y2="54.0" stroke="#e8e8e8"/>
<text x="72" y="58.0" text-anchor="end" font-family="Arial" font-size="12">6.0e+03</text>
<text x="386.0" y="538" text-anchor="middle" font-family="Arial" font-size="14">Commit horizon T</text>
<text transform="translate(22,269.0) rotate(-90)" text-anchor="middle" font-family="Arial" font-size="14">x'Wx</text>
<polyline fill="none" stroke="#1f77b4" stroke-width="2.2" points="82.00,456.72 149.56,413.82 217.11,370.93 284.67,328.03 352.22,285.13"/>
<circle cx="82.0" cy="456.7194058691845" r="3.2" fill="#1f77b4"/>
<circle cx="149.55555555555554" cy="413.82247301483295" r="3.2" fill="#1f77b4"/>
<circle cx="217.11111111111111" cy="370.92554016048166" r="3.2" fill="#1f77b4"/>
<circle cx="284.66666666666663" cy="328.02860730613025" r="3.2" fill="#1f77b4"/>
<circle cx="352.22222222222223" cy="285.13167445177874" r="3.2" fill="#1f77b4"/>
<line x1="718" y1="54" x2="738" y2="54" stroke="#1f77b4" stroke-width="2.2"/>
<text x="746" y="58" font-family="Arial" font-size="12">SDP+GW</text>
<polyline fill="none" stroke="#d62728" stroke-width="2.2" points="82.00,459.22 149.56,423.66 217.11,387.11 284.67,346.46 352.22,311.91 419.78,273.03 487.33,238.78 554.89,201.31 622.44,163.41 690.00,128.29"/>
<circle cx="82.0" cy="459.21960316529845" r="3.2" fill="#d62728"/>
<circle cx="149.55555555555554" cy="423.65705290204517" r="3.2" fill="#d62728"/>
<circle cx="217.11111111111111" cy="387.1082642844257" r="3.2" fill="#d62728"/>
<circle cx="284.66666666666663" cy="346.4617975723926" r="3.2" fill="#d62728"/>
<circle cx="352.22222222222223" cy="311.91496466694633" r="3.2" fill="#d62728"/>
<circle cx="419.77777777777777" cy="273.0313190598396" r="3.2" fill="#d62728"/>
<circle cx="487.3333333333333" cy="238.78254537553622" r="3.2" fill="#d62728"/>
<circle cx="554.8888888888889" cy="201.3135217046591" r="3.2" fill="#d62728"/>
<circle cx="622.4444444444445" cy="163.40556089034862" r="3.2" fill="#d62728"/>
<circle cx="690.0" cy="128.2924768451412" r="3.2" fill="#d62728"/>
<line x1="718" y1="76" x2="738" y2="76" stroke="#d62728" stroke-width="2.2"/>
<text x="746" y="80" font-family="Arial" font-size="12">Sign-Iteration</text>
<polyline fill="none" stroke="#2ca02c" stroke-width="2.2" points="82.00,460.96 149.56,421.78 217.11,383.66 284.67,345.03 352.22,304.77 419.78,271.45 487.33,231.18 554.89,195.18 622.44,154.93 690.00,121.61"/>
<circle cx="82.0" cy="460.9642857142857" r="3.2" fill="#2ca02c"/>
<circle cx="149.55555555555554" cy="421.7796798126413" r="3.2" fill="#2ca02c"/>
<circle cx="217.11111111111111" cy="383.66427544981394" r="3.2" fill="#2ca02c"/>
<circle cx="284.66666666666663" cy="345.03239410901443" r="3.2" fill="#2ca02c"/>
<circle cx="352.22222222222223" cy="304.77036240756615" r="3.2" fill="#2ca02c"/>
<circle cx="419.77777777777777" cy="271.4489889290137" r="3.2" fill="#2ca02c"/>
<circle cx="487.3333333333333" cy="231.17985112337956" r="3.2" fill="#2ca02c"/>
<circle cx="554.8888888888889" cy="195.17511842002438" r="3.2" fill="#2ca02c"/>
<circle cx="622.4444444444445" cy="154.93124808182353" r="3.2" fill="#2ca02c"/>
<circle cx="690.0" cy="121.60535889979869" r="3.2" fill="#2ca02c"/>
<line x1="718" y1="98" x2="738" y2="98" stroke="#2ca02c" stroke-width="2.2"/>
<text x="746" y="102" font-family="Arial" font-size="12">Box-PGA</text>
<polyline fill="none" stroke="#9467bd" stroke-width="2.2" points="82.00,458.99 149.56,419.34 217.11,380.98 284.67,339.62 352.22,301.61 419.78,260.97 487.33,223.79 554.89,183.00 622.44,144.48 690.00,105.45"/>
<circle cx="82.0" cy="458.9912668513572" r="3.2" fill="#9467bd"/>
<circle cx="149.55555555555554" cy="419.3429587889194" r="3.2" fill="#9467bd"/>
<circle cx="217.11111111111111" cy="380.9810475048072" r="3.2" fill="#9467bd"/>
<circle cx="284.66666666666663" cy="339.6224750746318" r="3.2" fill="#9467bd"/>
<circle cx="352.22222222222223" cy="301.6136136186307" r="3.2" fill="#9467bd"/>
<circle cx="419.77777777777777" cy="260.97223354372574" r="3.2" fill="#9467bd"/>
<circle cx="487.3333333333333" cy="223.78616344886092" r="3.2" fill="#9467bd"/>
<circle cx="554.8888888888889" cy="183.002554389654" r="3.2" fill="#9467bd"/>
<circle cx="622.4444444444445" cy="144.48265464740962" r="3.2" fill="#9467bd"/>
<circle cx="690.0" cy="105.45291358273687" r="3.2" fill="#9467bd"/>
<line x1="718" y1="120" x2="738" y2="120" stroke="#9467bd" stroke-width="2.2"/>
<text x="746" y="124" font-family="Arial" font-size="12">LR-SDP r=2</text>
<polyline fill="none" stroke="#ff7f0e" stroke-width="2.2" points="82.00,456.72 149.56,415.41 217.11,371.99 284.67,330.15 352.22,287.80 419.78,247.03 487.33,203.64 554.89,161.28 622.44,120.46 690.00,79.71"/>
<circle cx="82.0" cy="456.7194058691845" r="3.2" fill="#ff7f0e"/>
<circle cx="149.55555555555554" cy="415.4148779479721" r="3.2" fill="#ff7f0e"/>
<circle cx="217.11111111111111" cy="371.9871434490081" r="3.2" fill="#ff7f0e"/>
<circle cx="284.66666666666663" cy="330.151813883649" r="3.2" fill="#ff7f0e"/>
<circle cx="352.22222222222223" cy="287.80476704684816" r="3.2" fill="#ff7f0e"/>
<circle cx="419.77777777777777" cy="247.03104045045274" r="3.2" fill="#ff7f0e"/>
<circle cx="487.3333333333333" cy="203.64147501762616" r="3.2" fill="#ff7f0e"/>
<circle cx="554.8888888888889" cy="161.28137045181327" r="3.2" fill="#ff7f0e"/>
<circle cx="622.4444444444445" cy="120.46344873652023" r="3.2" fill="#ff7f0e"/>
<circle cx="690.0" cy="79.70879494290057" r="3.2" fill="#ff7f0e"/>
<line x1="718" y1="142" x2="738" y2="142" stroke="#ff7f0e" stroke-width="2.2"/>
<text x="746" y="146" font-family="Arial" font-size="12">LR-SDP r=4</text>
<polyline fill="none" stroke="#17becf" stroke-width="2.2" points="82.00,457.25 149.56,414.88 217.11,373.05 284.67,331.24 352.22,288.34 419.78,245.97 487.33,204.13 554.89,163.36 622.44,121.01 690.00,79.22"/>
<circle cx="82.0" cy="457.25020751356425" r="3.2" fill="#17becf"/>
<circle cx="149.55555555555554" cy="414.88407630359234" r="3.2" fill="#17becf"/>
<circle cx="217.11111111111111" cy="373.04874673800043" r="3.2" fill="#17becf"/>
<circle cx="284.66666666666663" cy="331.23852818972824" r="3.2" fill="#17becf"/>
<circle cx="352.22222222222223" cy="288.33556869122793" r="3.2" fill="#17becf"/>
<circle cx="419.77777777777777" cy="245.96943748125597" r="3.2" fill="#17becf"/>
<circle cx="487.3333333333333" cy="204.1341079156639" r="3.2" fill="#17becf"/>
<circle cx="554.8888888888889" cy="163.3603816388312" r="3.2" fill="#17becf"/>
<circle cx="622.4444444444445" cy="121.01333480179139" r="3.2" fill="#17becf"/>
<circle cx="690.0" cy="79.21617345018632" r="3.2" fill="#17becf"/>
<line x1="718" y1="164" x2="738" y2="164" stroke="#17becf" stroke-width="2.2"/>
<text x="746" y="168" font-family="Arial" font-size="12">LR-SDP r=6</text>
<polyline fill="none" stroke="#8c564b" stroke-width="2.2" points="82.00,456.72 149.56,415.43 217.11,373.58 284.67,331.23 352.22,288.87 419.78,244.91 487.33,204.73 554.89,162.84 622.44,120.00 690.00,77.04"/>
<circle cx="82.0" cy="456.7194058691845" r="3.2" fill="#8c564b"/>
<circle cx="149.55555555555554" cy="415.4339623207548" r="3.2" fill="#8c564b"/>
<circle cx="217.11111111111111" cy="373.57954838237987" r="3.2" fill="#8c564b"/>
<circle cx="284.66666666666663" cy="331.2325014973866" r="3.2" fill="#8c564b"/>
<circle cx="352.22222222222223" cy="288.86637033560766" r="3.2" fill="#8c564b"/>
<circle cx="419.77777777777777" cy="244.90783419249667" r="3.2" fill="#8c564b"/>
<circle cx="487.3333333333333" cy="204.7281893237158" r="3.2" fill="#8c564b"/>
<circle cx="554.8888888888889" cy="162.8356066385137" r="3.2" fill="#8c564b"/>
<circle cx="622.4444444444445" cy="119.99592098591889" r="3.2" fill="#8c564b"/>
<circle cx="690.0" cy="77.0357142857143" r="3.2" fill="#8c564b"/>
<line x1="718" y1="186" x2="738" y2="186" stroke="#8c564b" stroke-width="2.2"/>
<text x="746" y="190" font-family="Arial" font-size="12">LR-SDP r=8</text>
</svg>
