<svg xmlns="http://www.w3.org/2000/svg" width="900" height="560" viewBox="0 0 900 560">
<rect width="100%" height="100%" fill="white"/>
<text x="82" y="30" font-family="Arial" font-size="20" font-weight="700">Peak Memory Usage vs T</text>
<line x1="82" y1="484" x2="690" y2="484" stroke="#333" stroke-width="1.2"/>
<line x1="82" y1="54" x2="82" y2="484" stroke="#333" stroke-width="1.2"/>
<line x1="82.0" y1="484" x2="82.0" y2="489" stroke="#333"/>
<text x="82.0" y="508" text-anchor="middle" font-family="Arial" font-size="12">200</text>
<line x1="234.0" y1="484" x2="234.0" y2="489" stroke="#333"/>
<text x="234.0" y="508" text-anchor="middle" font-family="Arial" font-size="12">650</text>
<line x1="386.0" y1="484" x2="386.0" y2="489" stroke="#333"/>
<text x="386.0" y="508" text-anchor="middle" font-family="Arial" font-size="12">1.1e+03</text>
<line x1="538.0" y1="484" x2="538.0" y2="489" stroke="#333"/>
<text x="538.0" y="508" text-anchor="middle" font-family="Arial" font-size="12">1.6e+03</text>
<line x1="690.0" y1="484" x2="690.0" y2="489" stroke="#333"/>
<text x="690.0" y="508" text-anchor="middle" font-family="Arial" font-size="12">2.0e+03</text>
<line x1="77" y1="484.0" x2="82" y2="484.0" stroke="#333"/>
<line x1="82" y1="484.0" x2="690" y2="484.0" stroke="#e8e8e8"/>
<text x="72" y="488.0" text-anchor="end" font-family="Arial" font-size="12">421</text>
<line x1="77" y1="376.5" x2="82" y2="376.5" stroke="#333"/>
<line x1="82" y1="376.5" x2="690" y2="376.5" stroke="#e8e8e8"/>
<text x="72" y="380.5" text-anchor="end" font-family="Arial" font-size="12">648</text>
<line x1="77" y1="269.0" x2="82" y2="269.0" stroke="#333"/>
<line x1="82" y1="269.0" x2="690" y2="269.0" stroke="#e8e8e8"/>
<text x="72" y="273.0" text-anchor="end" font-family="Arial" font-size="12">998</text>
<line x1="77" y1="161.5" x2="82" y2="161.5" stroke="#333"/>
<line x1="82" y1="161.5" x2="690" y2="161.5" stroke="#e8e8e8"/>
<text x="72" y="165.5" text-anchor="end" font-family="Arial" font-size="12">1.5e+03</text>
<line x1="77" y1="54.0" x2="82" y2="54.0" stroke="#333"/>
<line x1="82" y1="54.0" x2="690" y2="54.0" stroke="#e8e8e8"/>
<text x="72" y="58.0" text-anchor="end" font-family="Arial" font-size="12">2.4e+03</text>
<text x="386.0" y="538" text-anchor="middle" font-family="Arial" font-size="14">T</text>
<text transform="translate(22,269.0) rotate(-90)" text-anchor="middle" font-family="Arial" font-size="14">MB (log scale)</text>
<polyline fill="none" stroke="#1f77b4" stroke-width="2.2" points="82.00,428.45 149.56,323.85 217.11,208.72 284.67,137.65 352.22,98.03"/>
<circle cx="82.0" cy="428.4466334025921" r="3.2" fill="#1f77b4"/>
<circle cx="149.55555555555554" cy="323.8454960748482" r="3.2" fill="#1f77b4"/>
<circle cx="217.11111111111111" cy="208.71635103435568" r="3.2" fill="#1f77b4"/>
<circle cx="284.66666666666663" cy="137.64951158628912" r="3.2" fill="#1f77b4"/>
<circle cx="352.22222222222223" cy="98.03049482012301" r="3.2" fill="#1f77b4"/>
<line x1="718" y1="54" x2="738" y2="54" stroke="#1f77b4" stroke-width="2.2"/>
<text x="746" y="58" font-family="Arial" font-size="12">SDP+GW</text>
<polyline fill="none" stroke="#d62728" stroke-width="2.2" points="82.00,484.00 149.56,417.02 217.11,307.22 284.67,190.22 352.22,118.72 419.78,71.75 487.33,71.71 554.89,71.71 622.44,61.28 690.00,54.00"/>
<circle cx="82.0" cy="484.0" r="3.2" fill="#d62728"/>
<circle cx="149.55555555555554" cy="417.0214674664493" r="3.2" fill="#d62728"/>
<circle cx="217.11111111111111" cy="307.2202064285543" r="3.2" fill="#d62728"/>
<circle cx="284.66666666666663" cy="190.2184204955111" r="3.2" fill="#d62728"/>
<circle cx="352.22222222222223" cy="118.71819499631391" r="3.2" fill="#d62728"/>
<circle cx="419.77777777777777" cy="71.74571845233575" r="3.2" fill="#d62728"/>
<circle cx="487.3333333333333" cy="71.70857501031587" r="3.2" fill="#d62728"/>
<circle cx="554.8888888888889" cy="71.70857501031587" r="3.2" fill="#d62728"/>
<circle cx="622.4444444444445" cy="61.28270012331248" r="3.2" fill="#d62728"/>
<circle cx="690.0" cy="54.0" r="3.2" fill="#d62728"/>
<line x1="718" y1="76" x2="738" y2="76" stroke="#d62728" stroke-width="2.2"/>
<text x="746" y="80" font-family="Arial" font-size="12">Sign-Iteration</text>
<polyline fill="none" stroke="#2ca02c" stroke-width="2.2" points="82.00,482.96 149.56,417.02 217.11,307.22 284.67,190.21 352.22,118.72 419.78,71.71 487.33,71.71 554.89,71.71 622.44,61.01 690.00,54.00"/>
<circle cx="82.0" cy="482.9572971301902" r="3.2" fill="#2ca02c"/>
<circle cx="149.55555555555554" cy="417.0214674664493" r="3.2" fill="#2ca02c"/>
<circle cx="217.11111111111111" cy="307.2202064285543" r="3.2" fill="#2ca02c"/>
<circle cx="284.66666666666663" cy="190.21273010048253" r="3.2" fill="#2ca02c"/>
<circle cx="352.22222222222223" cy="118.71819499631391" r="3.2" fill="#2ca02c"/>
<circle cx="419.77777777777777" cy="71.70857501031587" r="3.2" fill="#2ca02c"/>
<circle cx="487.3333333333333" cy="71.70857501031587" r="3.2" fill="#2ca02c"/>
<circle cx="554.8888888888889" cy="71.70857501031587" r="3.2" fill="#2ca02c"/>
<circle cx="622.4444444444445" cy="61.00976907563349" r="3.2" fill="#2ca02c"/>
<circle cx="690.0" cy="54.0" r="3.2" fill="#2ca02c"/>
<line x1="718" y1="98" x2="738" y2="98" stroke="#2ca02c" stroke-width="2.2"/>
<text x="746" y="102" font-family="Arial" font-size="12">Box-PGA</text>
<polyline fill="none" stroke="#9467bd" stroke-width="2.2" points="82.00,482.74 149.56,416.58 217.11,307.07 284.67,190.12 352.22,118.72 419.78,71.71 487.33,71.71 554.89,71.71 622.44,61.01 690.00,54.00"/>
<circle cx="82.0" cy="482.7363985904917" r="3.2" fill="#9467bd"/>
<circle cx="149.55555555555554" cy="416.58364274691615" r="3.2" fill="#9467bd"/>
<circle cx="217.11111111111111" cy="307.07466056935186" r="3.2" fill="#9467bd"/>
<circle cx="284.66666666666663" cy="190.11885733324507" r="3.2" fill="#9467bd"/>
<circle cx="352.22222222222223" cy="118.71819499631391" r="3.2" fill="#9467bd"/>
<circle cx="419.77777777777777" cy="71.70857501031587" r="3.2" fill="#9467bd"/>
<circle cx="487.3333333333333" cy="71.70857501031587" r="3.2" fill="#9467bd"/>
<circle cx="554.8888888888889" cy="71.70857501031587" r="3.2" fill="#9467bd"/>
<circle cx="622.4444444444445" cy="61.00976907563349" r="3.2" fill="#9467bd"/>
<circle cx="690.0" cy="54.0" r="3.2" fill="#9467bd"/>
<line x1="718" y1="120" x2="738" y2="120" stroke="#9467bd" stroke-width="2.2"/>
<text x="746" y="124" font-family="Arial" font-size="12">LR-SDP r=2</text>
<polyline fill="none" stroke="#ff7f0e" stroke-width="2.2" points="82.00,482.50 149.56,416.36 217.11,307.07 284.67,190.12 352.22,118.72 419.78,71.71 487.33,71.71 554.89,71.71 622.44,61.01 690.00,54.00"/>
<circle cx="82.0" cy="482.49731255028803" r="3.2" fill="#ff7f0e"/>
<circle cx="149.55555555555554" cy="416.3579692381385" r="3.2" fill="#ff7f0e"/>
<circle cx="217.11111111111111" cy="307.0701136303909" r="3.2" fill="#ff7f0e"/>
<circle cx="284.66666666666663" cy="190.11885733324507" r="3.2" fill="#ff7f0e"/>
<circle cx="352.22222222222223" cy="118.71819499631391" r="3.2" fill="#ff7f0e"/>
<circle cx="419.77777777777777" cy="71.70857501031587" r="3.2" fill="#ff7f0e"/>
<circle cx="487.3333333333333" cy="71.70857501031587" r="3.2" fill="#ff7f0e"/>
<circle cx="554.8888888888889" cy="71.70857501031587" r="3.2" fill="#ff7f0e"/>
<circle cx="622.4444444444445" cy="61.00976907563349" r="3.2" fill="#ff7f0e"/>
<circle cx="690.0" cy="54.0" r="3.2" fill="#ff7f0e"/>
<line x1="718" y1="142" x2="738" y2="142" stroke="#ff7f0e" stroke-width="2.2"/>
<text x="746" y="146" font-family="Arial" font-size="12">LR-SDP r=4</text>
<polyline fill="none" stroke="#17becf" stroke-width="2.2" points="82.00,482.36 149.56,416.36 217.11,307.07 284.67,190.12 352.22,118.72 419.78,71.71 487.33,71.71 554.89,71.71 622.44,61.01 690.00,54.00"/>
<circle cx="82.0" cy="482.3594825428583" r="3.2" fill="#17becf"/>
<circle cx="149.55555555555554" cy="416.3579692381385" r="3.2" fill="#17becf"/>
<circle cx="217.11111111111111" cy="307.0701136303909" r="3.2" fill="#17becf"/>
<circle cx="284.66666666666663" cy="190.11885733324507" r="3.2" fill="#17becf"/>
<circle cx="352.22222222222223" cy="118.71819499631391" r="3.2" fill="#17becf"/>
<circle cx="419.77777777777777" cy="71.70857501031587" r="3.2" fill="#17becf"/>
<circle cx="487.3333333333333" cy="71.70857501031587" r="3.2" fill="#17becf"/>
<circle cx="554.8888888888889" cy="71.70857501031587" r="3.2" fill="#17becf"/>
<circle cx="622.4444444444445" cy="61.00976907563349" r="3.2" fill="#17becf"/>
<circle cx="690.0" cy="54.0" r="3.2" fill="#17becf"/>
<line x1="718" y1="164" x2="738" y2="164" stroke="#17becf" stroke-width="2.2"/>
<text x="746" y="168" font-family="Arial" font-size="12">LR-SDP r=6</text>
<polyline fill="none" stroke="#8c564b" stroke-width="2.2" points="82.00,482.09 149.56,416.19 217.11,307.07 284.67,190.12 352.22,118.72 419.78,71.71 487.33,71.71 554.89,71.71 622.44,61.01 690.00,54.00"/>
<circle cx="82.0" cy="482.09322711377513" r="3.2" fill="#8c564b"/>
<circle cx="149.55555555555554" cy="416.1888480917078" r="3.2" fill="#8c564b"/>
<circle cx="217.11111111111111" cy="307.0701136303909" r="3.2" fill="#8c564b"/>
<circle cx="284.66666666666663" cy="190.11885733324507" r="3.2" fill="#8c564b"/>
<circle cx="352.22222222222223" cy="118.71819499631391" r="3.2" fill="#8c564b"/>
<circle cx="419.77777777777777" cy="71.70857501031587" r="3.2" fill="#8c564b"/>
<circle cx="487.3333333333333" cy="71.70857501031587" r="3.2" fill="#8c564b"/>
<circle cx="554.8888888888889" cy="71.70857501031587" r="3.2" fill="#8c564b"/>
<circle cx="622.4444444444445" cy="61.00976907563349" r="3.2" fill="#8c564b"/>
<circle cx="690.0" cy="54.0" r="3.2" fill="#8c564b"/>
<line x1="718" y1="186" x2="738" y2="186" stroke="#8c564b" stroke-width="2.2"/>
<text x="746" y="190" font-family="Arial" font-size="12">LR-SDP r=8</text>
</svg>
