<svg xmlns="http://www.w3.org/2000/svg" width="1080" height="640" viewBox="0 0 1080 640">
<rect width="100%" height="100%" fill="white"/>
<text x="88" y="32" font-family="Arial" font-size="21" font-weight="700">Max Value vs T</text>
<line x1="88" y1="554" x2="850" y2="554" stroke="#333" stroke-width="1.2"/>
<line x1="88" y1="58" x2="88" y2="554" stroke="#333" stroke-width="1.2"/>
<line x1="88" y1="554.0" x2="850" y2="554.0" stroke="#e8e8e8"/>
<text x="78" y="558.0" text-anchor="end" font-family="Arial" font-size="12">-163.6</text>
<line x1="88" y1="454.79999999999995" x2="850" y2="454.79999999999995" stroke="#e8e8e8"/>
<text x="78" y="458.79999999999995" text-anchor="end" font-family="Arial" font-size="12">447.1</text>
<line x1="88" y1="355.5999999999999" x2="850" y2="355.5999999999999" stroke="#e8e8e8"/>
<text x="78" y="359.5999999999999" text-anchor="end" font-family="Arial" font-size="12">1058</text>
<line x1="88" y1="256.4" x2="850" y2="256.4" stroke="#e8e8e8"/>
<text x="78" y="260.4" text-anchor="end" font-family="Arial" font-size="12">1668</text>
<line x1="88" y1="157.2" x2="850" y2="157.2" stroke="#e8e8e8"/>
<text x="78" y="161.2" text-anchor="end" font-family="Arial" font-size="12">2279</text>
<line x1="88" y1="58.0" x2="850" y2="58.0" stroke="#e8e8e8"/>
<text x="78" y="62.0" text-anchor="end" font-family="Arial" font-size="12">2890</text>
<line x1="88.0" y1="554" x2="88.0" y2="559" stroke="#333"/>
<text x="88.0" y="578" text-anchor="middle" font-family="Arial" font-size="12">200</text>
<line x1="172.66666666666666" y1="554" x2="172.66666666666666" y2="559" stroke="#333"/>
<text x="172.66666666666666" y="578" text-anchor="middle" font-family="Arial" font-size="12">400</text>
<line x1="257.3333333333333" y1="554" x2="257.3333333333333" y2="559" stroke="#333"/>
<text x="257.3333333333333" y="578" text-anchor="middle" font-family="Arial" font-size="12">600</text>
<line x1="342.0" y1="554" x2="342.0" y2="559" stroke="#333"/>
<text x="342.0" y="578" text-anchor="middle" font-family="Arial" font-size="12">800</text>
<line x1="426.66666666666663" y1="554" x2="426.66666666666663" y2="559" stroke="#333"/>
<text x="426.66666666666663" y="578" text-anchor="middle" font-family="Arial" font-size="12">1000</text>
<line x1="511.33333333333337" y1="554" x2="511.33333333333337" y2="559" stroke="#333"/>
<text x="511.33333333333337" y="578" text-anchor="middle" font-family="Arial" font-size="12">1200</text>
<line x1="596.0" y1="554" x2="596.0" y2="559" stroke="#333"/>
<text x="596.0" y="578" text-anchor="middle" font-family="Arial" font-size="12">1400</text>
<line x1="680.6666666666666" y1="554" x2="680.6666666666666" y2="559" stroke="#333"/>
<text x="680.6666666666666" y="578" text-anchor="middle" font-family="Arial" font-size="12">1600</text>
<line x1="765.3333333333333" y1="554" x2="765.3333333333333" y2="559" stroke="#333"/>
<text x="765.3333333333333" y="578" text-anchor="middle" font-family="Arial" font-size="12">1800</text>
<line x1="850.0" y1="554" x2="850.0" y2="559" stroke="#333"/>
<text x="850.0" y="578" text-anchor="middle" font-family="Arial" font-size="12">2000</text>
<path d="M 88.00 487.39 L 172.67 447.75 L 257.33 408.18 L 342.00 368.77 L 426.67 329.48 L 511.33 289.47 L 596.00 250.11 L 680.67 210.67 L 765.33 170.94 L 850.00 131.84 L 850.00 132.24 L 765.33 171.69 L 680.67 211.15 L 596.00 250.69 L 511.33 289.86 L 426.67 329.58 L 342.00 369.12 L 257.33 408.50 L 172.67 448.14 L 88.00 487.68 Z" fill="#1f77b4" opacity="0.16" stroke="none"/>
<path d="M 88.00 487.53 L 172.67 447.94 L 257.33 408.34 L 342.00 368.95 L 426.67 329.53 L 511.33 289.67 L 596.00 250.40 L 680.67 210.91 L 765.33 171.31 L 850.00 132.04" fill="none" stroke="#1f77b4" stroke-width="2.4"/>
<circle cx="88.0" cy="487.53447138488775" r="3.2" fill="#1f77b4"/>
<circle cx="172.66666666666666" cy="447.94354896204027" r="3.2" fill="#1f77b4"/>
<circle cx="257.3333333333333" cy="408.3397884696791" r="3.2" fill="#1f77b4"/>
<circle cx="342.0" cy="368.94722164426594" r="3.2" fill="#1f77b4"/>
<circle cx="426.66666666666663" cy="329.5307866836554" r="3.2" fill="#1f77b4"/>
<circle cx="511.33333333333337" cy="289.6651467706104" r="3.2" fill="#1f77b4"/>
<circle cx="596.0" cy="250.4003772423873" r="3.2" fill="#1f77b4"/>
<circle cx="680.6666666666666" cy="210.91078027595984" r="3.2" fill="#1f77b4"/>
<circle cx="765.3333333333333" cy="171.31384491224824" r="3.2" fill="#1f77b4"/>
<circle cx="850.0" cy="132.03764480411286" r="3.2" fill="#1f77b4"/>
<path d="M 88.00 518.18 L 172.67 513.14 L 257.33 513.92 L 342.00 507.39 L 426.67 509.66 L 511.33 504.98 L 596.00 508.30 L 680.67 504.43 L 765.33 502.42 L 850.00 504.36 L 850.00 514.92 L 765.33 515.78 L 680.67 514.92 L 596.00 515.44 L 511.33 516.56 L 426.67 517.80 L 342.00 519.99 L 257.33 518.60 L 172.67 520.42 L 88.00 522.67 Z" fill="#d62728" opacity="0.16" stroke="none"/>
<path d="M 88.00 520.43 L 172.67 516.78 L 257.33 516.26 L 342.00 513.69 L 426.67 513.73 L 511.33 510.77 L 596.00 511.87 L 680.67 509.67 L 765.33 509.10 L 850.00 509.64" fill="none" stroke="#d62728" stroke-width="2.4"/>
<circle cx="88.0" cy="520.426503941406" r="3.2" fill="#d62728"/>
<circle cx="172.66666666666666" cy="516.7796183945227" r="3.2" fill="#d62728"/>
<circle cx="257.3333333333333" cy="516.2597495750667" r="3.2" fill="#d62728"/>
<circle cx="342.0" cy="513.6908436371767" r="3.2" fill="#d62728"/>
<circle cx="426.66666666666663" cy="513.7328895535795" r="3.2" fill="#d62728"/>
<circle cx="511.33333333333337" cy="510.7665853581895" r="3.2" fill="#d62728"/>
<circle cx="596.0" cy="511.86920259192436" r="3.2" fill="#d62728"/>
<circle cx="680.6666666666666" cy="509.67271756879256" r="3.2" fill="#d62728"/>
<circle cx="765.3333333333333" cy="509.10168870154115" r="3.2" fill="#d62728"/>
<circle cx="850.0" cy="509.6410320666582" r="3.2" fill="#d62728"/>
<path d="M 88.00 481.75 L 172.67 436.78 L 257.33 393.42 L 342.00 348.38 L 426.67 304.97 L 511.33 261.34 L 596.00 217.88 L 680.67 172.49 L 765.33 129.60 L 850.00 84.57 L 850.00 86.01 L 765.33 132.27 L 680.67 175.99 L 596.00 219.61 L 511.33 263.31 L 426.67 306.13 L 342.00 350.78 L 257.33 394.90 L 172.67 438.47 L 88.00 482.74 Z" fill="#2ca02c" opacity="0.16" stroke="none"/>
<path d="M 88.00 482.25 L 172.67 437.62 L 257.33 394.16 L 342.00 349.58 L 426.67 305.55 L 511.33 262.32 L 596.00 218.75 L 680.67 174.24 L 765.33 130.93 L 850.00 85.29" fill="none" stroke="#2ca02c" stroke-width="2.4"/>
<circle cx="88.0" cy="482.24508726152163" r="3.2" fill="#2ca02c"/>
<circle cx="172.66666666666666" cy="437.62284970103684" r="3.2" fill="#2ca02c"/>
<circle cx="257.3333333333333" cy="394.158812534881" r="3.2" fill="#2ca02c"/>
<circle cx="342.0" cy="349.57922989693054" r="3.2" fill="#2ca02c"/>
<circle cx="426.66666666666663" cy="305.54890572859574" r="3.2" fill="#2ca02c"/>
<circle cx="511.33333333333337" cy="262.32431908874076" r="3.2" fill="#2ca02c"/>
<circle cx="596.0" cy="218.74677679103812" r="3.2" fill="#2ca02c"/>
<circle cx="680.6666666666666" cy="174.24172659374824" r="3.2" fill="#2ca02c"/>
<circle cx="765.3333333333333" cy="130.9320143116855" r="3.2" fill="#2ca02c"/>
<circle cx="850.0" cy="85.29163596676948" r="3.2" fill="#2ca02c"/>
<path d="M 88.00 485.04 L 172.67 443.87 L 257.33 402.41 L 342.00 359.81 L 426.67 319.36 L 511.33 278.72 L 596.00 236.91 L 680.67 194.53 L 765.33 156.37 L 850.00 113.96 L 850.00 117.17 L 765.33 158.04 L 680.67 198.57 L 596.00 239.46 L 511.33 280.53 L 426.67 322.70 L 342.00 361.96 L 257.33 403.68 L 172.67 445.44 L 88.00 485.80 Z" fill="#9467bd" opacity="0.16" stroke="none"/>
<path d="M 88.00 485.42 L 172.67 444.66 L 257.33 403.05 L 342.00 360.88 L 426.67 321.03 L 511.33 279.62 L 596.00 238.18 L 680.67 196.55 L 765.33 157.20 L 850.00 115.57" fill="none" stroke="#9467bd" stroke-width="2.4"/>
<circle cx="88.0" cy="485.41528427778286" r="3.2" fill="#9467bd"/>
<circle cx="172.66666666666666" cy="444.65737333141305" r="3.2" fill="#9467bd"/>
<circle cx="257.3333333333333" cy="403.047372392907" r="3.2" fill="#9467bd"/>
<circle cx="342.0" cy="360.8837451880664" r="3.2" fill="#9467bd"/>
<circle cx="426.66666666666663" cy="321.0288070292591" r="3.2" fill="#9467bd"/>
<circle cx="511.33333333333337" cy="279.624690622824" r="3.2" fill="#9467bd"/>
<circle cx="596.0" cy="238.1847939029617" r="3.2" fill="#9467bd"/>
<circle cx="680.6666666666666" cy="196.54765703676185" r="3.2" fill="#9467bd"/>
<circle cx="765.3333333333333" cy="157.20292325405967" r="3.2" fill="#9467bd"/>
<circle cx="850.0" cy="115.56704507669147" r="3.2" fill="#9467bd"/>
<path d="M 88.00 484.84 L 172.67 444.19 L 257.33 402.58 L 342.00 361.14 L 426.67 321.07 L 511.33 281.29 L 596.00 240.49 L 680.67 199.79 L 765.33 159.43 L 850.00 118.81 L 850.00 121.96 L 765.33 161.95 L 680.67 201.98 L 596.00 242.05 L 511.33 283.51 L 426.67 323.58 L 342.00 364.34 L 257.33 404.92 L 172.67 444.76 L 88.00 485.96 Z" fill="#ff7f0e" opacity="0.16" stroke="none"/>
<path d="M 88.00 485.40 L 172.67 444.47 L 257.33 403.75 L 342.00 362.74 L 426.67 322.33 L 511.33 282.40 L 596.00 241.27 L 680.67 200.88 L 765.33 160.69 L 850.00 120.39" fill="none" stroke="#ff7f0e" stroke-width="2.4"/>
<circle cx="88.0" cy="485.40448899305136" r="3.2" fill="#ff7f0e"/>
<circle cx="172.66666666666666" cy="444.4735085696383" r="3.2" fill="#ff7f0e"/>
<circle cx="257.3333333333333" cy="403.74811637376604" r="3.2" fill="#ff7f0e"/>
<circle cx="342.0" cy="362.74259568211437" r="3.2" fill="#ff7f0e"/>
<circle cx="426.66666666666663" cy="322.3276557721067" r="3.2" fill="#ff7f0e"/>
<circle cx="511.33333333333337" cy="282.3973322622288" r="3.2" fill="#ff7f0e"/>
<circle cx="596.0" cy="241.27016647069664" r="3.2" fill="#ff7f0e"/>
<circle cx="680.6666666666666" cy="200.88132307235466" r="3.2" fill="#ff7f0e"/>
<circle cx="765.3333333333333" cy="160.69416547864665" r="3.2" fill="#ff7f0e"/>
<circle cx="850.0" cy="120.38748653608684" r="3.2" fill="#ff7f0e"/>
<path d="M 88.00 484.98 L 172.67 443.20 L 257.33 403.43 L 342.00 362.16 L 426.67 319.90 L 511.33 280.35 L 596.00 239.06 L 680.67 198.60 L 765.33 158.67 L 850.00 118.12 L 850.00 120.64 L 765.33 161.77 L 680.67 201.20 L 596.00 241.97 L 511.33 282.33 L 426.67 323.11 L 342.00 363.03 L 257.33 403.99 L 172.67 444.70 L 88.00 485.63 Z" fill="#17becf" opacity="0.16" stroke="none"/>
<path d="M 88.00 485.30 L 172.67 443.95 L 257.33 403.71 L 342.00 362.59 L 426.67 321.51 L 511.33 281.34 L 596.00 240.51 L 680.67 199.90 L 765.33 160.22 L 850.00 119.38" fill="none" stroke="#17becf" stroke-width="2.4"/>
<circle cx="88.0" cy="485.3041476205241" r="3.2" fill="#17becf"/>
<circle cx="172.66666666666666" cy="443.94900147600345" r="3.2" fill="#17becf"/>
<circle cx="257.3333333333333" cy="403.71020484227165" r="3.2" fill="#17becf"/>
<circle cx="342.0" cy="362.59345765214726" r="3.2" fill="#17becf"/>
<circle cx="426.66666666666663" cy="321.50568493354825" r="3.2" fill="#17becf"/>
<circle cx="511.33333333333337" cy="281.33693041542364" r="3.2" fill="#17becf"/>
<circle cx="596.0" cy="240.51451681270828" r="3.2" fill="#17becf"/>
<circle cx="680.6666666666666" cy="199.9012688018754" r="3.2" fill="#17becf"/>
<circle cx="765.3333333333333" cy="160.22260219609666" r="3.2" fill="#17becf"/>
<circle cx="850.0" cy="119.38019362377455" r="3.2" fill="#17becf"/>
<path d="M 88.00 484.39 L 172.67 443.22 L 257.33 402.62 L 342.00 361.55 L 426.67 321.22 L 511.33 280.00 L 596.00 238.72 L 680.67 199.08 L 765.33 159.07 L 850.00 117.82 L 850.00 121.13 L 765.33 161.42 L 680.67 201.83 L 596.00 241.38 L 511.33 282.28 L 426.67 323.09 L 342.00 363.11 L 257.33 404.37 L 172.67 444.27 L 88.00 485.32 Z" fill="#8c564b" opacity="0.16" stroke="none"/>
<path d="M 88.00 484.85 L 172.67 443.75 L 257.33 403.49 L 342.00 362.33 L 426.67 322.15 L 511.33 281.14 L 596.00 240.05 L 680.67 200.46 L 765.33 160.24 L 850.00 119.47" fill="none" stroke="#8c564b" stroke-width="2.4"/>
<circle cx="88.0" cy="484.8549198069106" r="3.2" fill="#8c564b"/>
<circle cx="172.66666666666666" cy="443.74915460207956" r="3.2" fill="#8c564b"/>
<circle cx="257.3333333333333" cy="403.49153410887664" r="3.2" fill="#8c564b"/>
<circle cx="342.0" cy="362.33253109962925" r="3.2" fill="#8c564b"/>
<circle cx="426.66666666666663" cy="322.15206289266104" r="3.2" fill="#8c564b"/>
<circle cx="511.33333333333337" cy="281.13627568171927" r="3.2" fill="#8c564b"/>
<circle cx="596.0" cy="240.05373223234454" r="3.2" fill="#8c564b"/>
<circle cx="680.6666666666666" cy="200.45552121632088" r="3.2" fill="#8c564b"/>
<circle cx="765.3333333333333" cy="160.24244008141392" r="3.2" fill="#8c564b"/>
<circle cx="850.0" cy="119.47498139750121" r="3.2" fill="#8c564b"/>
<text x="469.0" y="615" text-anchor="middle" font-family="Arial" font-size="15">T</text>
<text transform="translate(24,306.0) rotate(-90)" text-anchor="middle" font-family="Arial" font-size="15">max value</text>
<rect x="882" y="48" width="18" height="12" fill="#1f77b4" opacity="0.75"/>
<line x1="882" y1="54" x2="900" y2="54" stroke="#1f77b4" stroke-width="2.4"/>
<text x="910" y="59" font-family="Arial" font-size="12">SDP+GW</text>
<rect x="882" y="72" width="18" height="12" fill="#d62728" opacity="0.75"/>
<line x1="882" y1="78" x2="900" y2="78" stroke="#d62728" stroke-width="2.4"/>
<text x="910" y="83" font-family="Arial" font-size="12">Sign-Iteration</text>
<rect x="882" y="96" width="18" height="12" fill="#2ca02c" opacity="0.75"/>
<line x1="882" y1="102" x2="900" y2="102" stroke="#2ca02c" stroke-width="2.4"/>
<text x="910" y="107" font-family="Arial" font-size="12">Box-PGA</text>
<rect x="882" y="120" width="18" height="12" fill="#9467bd" opacity="0.75"/>
<line x1="882" y1="126" x2="900" y2="126" stroke="#9467bd" stroke-width="2.4"/>
<text x="910" y="131" font-family="Arial" font-size="12">LR-SDP r=2</text>
<rect x="882" y="144" width="18" height="12" fill="#ff7f0e" opacity="0.75"/>
<line x1="882" y1="150" x2="900" y2="150" stroke="#ff7f0e" stroke-width="2.4"/>
<text x="910" y="155" font-family="Arial" font-size="12">LR-SDP r=4</text>
<rect x="882" y="168" width="18" height="12" fill="#17becf" opacity="0.75"/>
<line x1="882" y1="174" x2="900" y2="174" stroke="#17becf" stroke-width="2.4"/>
<text x="910" y="179" font-family="Arial" font-size="12">LR-SDP r=6</text>
<rect x="882" y="192" width="18" height="12" fill="#8c564b" opacity="0.75"/>
<line x1="882" y1="198" x2="900" y2="198" stroke="#8c564b" stroke-width="2.4"/>
<text x="910" y="203" font-family="Arial" font-size="12">LR-SDP r=8</text>
</svg>
