<svg xmlns="http://www.w3.org/2000/svg" width="1080" height="640" viewBox="0 0 1080 640">
<rect width="100%" height="100%" fill="white"/>
<text x="88" y="32" font-family="Arial" font-size="21" font-weight="700">Peak Memory vs T</text>
<line x1="88" y1="554" x2="850" y2="554" stroke="#333" stroke-width="1.2"/>
<line x1="88" y1="58" x2="88" y2="554" stroke="#333" stroke-width="1.2"/>
<line x1="88" y1="554.0" x2="850" y2="554.0" stroke="#e8e8e8"/>
<text x="78" y="558.0" text-anchor="end" font-family="Arial" font-size="12">-274.2</text>
<line x1="88" y1="454.79999999999995" x2="850" y2="454.79999999999995" stroke="#e8e8e8"/>
<text x="78" y="458.79999999999995" text-anchor="end" font-family="Arial" font-size="12">749.5</text>
<line x1="88" y1="355.6" x2="850" y2="355.6" stroke="#e8e8e8"/>
<text x="78" y="359.6" text-anchor="end" font-family="Arial" font-size="12">1773</text>
<line x1="88" y1="256.4" x2="850" y2="256.4" stroke="#e8e8e8"/>
<text x="78" y="260.4" text-anchor="end" font-family="Arial" font-size="12">2797</text>
<line x1="88" y1="157.2" x2="850" y2="157.2" stroke="#e8e8e8"/>
<text x="78" y="161.2" text-anchor="end" font-family="Arial" font-size="12">3821</text>
<line x1="88" y1="58.0" x2="850" y2="58.0" stroke="#e8e8e8"/>
<text x="78" y="62.0" text-anchor="end" font-family="Arial" font-size="12">4844</text>
<line x1="88.0" y1="554" x2="88.0" y2="559" stroke="#333"/>
<text x="88.0" y="578" text-anchor="middle" font-family="Arial" font-size="12">200</text>
<line x1="172.66666666666666" y1="554" x2="172.66666666666666" y2="559" stroke="#333"/>
<text x="172.66666666666666" y="578" text-anchor="middle" font-family="Arial" font-size="12">400</text>
<line x1="257.3333333333333" y1="554" x2="257.3333333333333" y2="559" stroke="#333"/>
<text x="257.3333333333333" y="578" text-anchor="middle" font-family="Arial" font-size="12">600</text>
<line x1="342.0" y1="554" x2="342.0" y2="559" stroke="#333"/>
<text x="342.0" y="578" text-anchor="middle" font-family="Arial" font-size="12">800</text>
<line x1="426.66666666666663" y1="554" x2="426.66666666666663" y2="559" stroke="#333"/>
<text x="426.66666666666663" y="578" text-anchor="middle" font-family="Arial" font-size="12">1000</text>
<line x1="511.33333333333337" y1="554" x2="511.33333333333337" y2="559" stroke="#333"/>
<text x="511.33333333333337" y="578" text-anchor="middle" font-family="Arial" font-size="12">1200</text>
<line x1="596.0" y1="554" x2="596.0" y2="559" stroke="#333"/>
<text x="596.0" y="578" text-anchor="middle" font-family="Arial" font-size="12">1400</text>
<line x1="680.6666666666666" y1="554" x2="680.6666666666666" y2="559" stroke="#333"/>
<text x="680.6666666666666" y="578" text-anchor="middle" font-family="Arial" font-size="12">1600</text>
<line x1="765.3333333333333" y1="554" x2="765.3333333333333" y2="559" stroke="#333"/>
<text x="765.3333333333333" y="578" text-anchor="middle" font-family="Arial" font-size="12">1800</text>
<line x1="850.0" y1="554" x2="850.0" y2="559" stroke="#333"/>
<text x="850.0" y="578" text-anchor="middle" font-family="Arial" font-size="12">2000</text>
<path d="M 88.00 472.74 L 172.67 445.98 L 257.33 415.21 L 342.00 380.58 L 426.67 335.40 L 511.33 286.78 L 596.00 266.48 L 680.67 201.89 L 765.33 149.19 L 850.00 84.57 L 850.00 85.16 L 765.33 155.77 L 680.67 204.44 L 596.00 270.70 L 511.33 288.45 L 426.67 347.72 L 342.00 386.15 L 257.33 418.67 L 172.67 447.69 L 88.00 473.62 Z" fill="#1f77b4" opacity="0.16" stroke="none"/>
<path d="M 88.00 473.18 L 172.67 446.83 L 257.33 416.94 L 342.00 383.36 L 426.67 341.56 L 511.33 287.61 L 596.00 268.59 L 680.67 203.16 L 765.33 152.48 L 850.00 84.87" fill="none" stroke="#1f77b4" stroke-width="2.4"/>
<circle cx="88.0" cy="473.1796011405143" r="3.2" fill="#1f77b4"/>
<circle cx="172.66666666666666" cy="446.8333782940439" r="3.2" fill="#1f77b4"/>
<circle cx="257.3333333333333" cy="416.9416331664071" r="3.2" fill="#1f77b4"/>
<circle cx="342.0" cy="383.36374102825414" r="3.2" fill="#1f77b4"/>
<circle cx="426.66666666666663" cy="341.5607217190698" r="3.2" fill="#1f77b4"/>
<circle cx="511.33333333333337" cy="287.6145772277279" r="3.2" fill="#1f77b4"/>
<circle cx="596.0" cy="268.5887894846022" r="3.2" fill="#1f77b4"/>
<circle cx="680.6666666666666" cy="203.16365463652383" r="3.2" fill="#1f77b4"/>
<circle cx="765.3333333333333" cy="152.48064737091144" r="3.2" fill="#1f77b4"/>
<circle cx="850.0" cy="84.86627127870497" r="3.2" fill="#1f77b4"/>
<path d="M 88.00 483.67 L 172.67 481.63 L 257.33 479.18 L 342.00 474.85 L 426.67 469.19 L 511.33 462.50 L 596.00 454.77 L 680.67 446.13 L 765.33 436.13 L 850.00 424.60 L 850.00 425.30 L 765.33 436.40 L 680.67 446.72 L 596.00 455.68 L 511.33 463.19 L 426.67 469.82 L 342.00 475.41 L 257.33 479.72 L 172.67 482.72 L 88.00 484.54 Z" fill="#d62728" opacity="0.16" stroke="none"/>
<path d="M 88.00 484.11 L 172.67 482.17 L 257.33 479.45 L 342.00 475.13 L 426.67 469.50 L 511.33 462.85 L 596.00 455.23 L 680.67 446.42 L 765.33 436.27 L 850.00 424.95" fill="none" stroke="#d62728" stroke-width="2.4"/>
<circle cx="88.0" cy="484.1053666198767" r="3.2" fill="#d62728"/>
<circle cx="172.66666666666666" cy="482.17371656907943" r="3.2" fill="#d62728"/>
<circle cx="257.3333333333333" cy="479.4499877937489" r="3.2" fill="#d62728"/>
<circle cx="342.0" cy="475.1305563358522" r="3.2" fill="#d62728"/>
<circle cx="426.66666666666663" cy="469.5032959683915" r="3.2" fill="#d62728"/>
<circle cx="511.33333333333337" cy="462.8475634888368" r="3.2" fill="#d62728"/>
<circle cx="596.0" cy="455.2254381855146" r="3.2" fill="#d62728"/>
<circle cx="680.6666666666666" cy="446.42361713786363" r="3.2" fill="#d62728"/>
<circle cx="765.3333333333333" cy="436.2655150531744" r="3.2" fill="#d62728"/>
<circle cx="850.0" cy="424.95080769115594" r="3.2" fill="#d62728"/>
<path d="M 88.00 483.70 L 172.67 482.10 L 257.33 478.65 L 342.00 474.44 L 426.67 469.25 L 511.33 462.95 L 596.00 455.19 L 680.67 446.00 L 765.33 435.94 L 850.00 424.88 L 850.00 425.36 L 765.33 436.32 L 680.67 446.67 L 596.00 455.45 L 511.33 463.41 L 426.67 469.75 L 342.00 475.22 L 257.33 479.72 L 172.67 482.61 L 88.00 484.24 Z" fill="#2ca02c" opacity="0.16" stroke="none"/>
<path d="M 88.00 483.97 L 172.67 482.35 L 257.33 479.19 L 342.00 474.83 L 426.67 469.50 L 511.33 463.18 L 596.00 455.32 L 680.67 446.33 L 765.33 436.13 L 850.00 425.12" fill="none" stroke="#2ca02c" stroke-width="2.4"/>
<circle cx="88.0" cy="483.9689057452319" r="3.2" fill="#2ca02c"/>
<circle cx="172.66666666666666" cy="482.3523837891414" r="3.2" fill="#2ca02c"/>
<circle cx="257.3333333333333" cy="479.1876649473444" r="3.2" fill="#2ca02c"/>
<circle cx="342.0" cy="474.82943393424347" r="3.2" fill="#2ca02c"/>
<circle cx="426.66666666666663" cy="469.4970501863342" r="3.2" fill="#2ca02c"/>
<circle cx="511.33333333333337" cy="463.1827537925759" r="3.2" fill="#2ca02c"/>
<circle cx="596.0" cy="455.31647519065206" r="3.2" fill="#2ca02c"/>
<circle cx="680.6666666666666" cy="446.33220160048023" r="3.2" fill="#2ca02c"/>
<circle cx="765.3333333333333" cy="436.1284863801607" r="3.2" fill="#2ca02c"/>
<circle cx="850.0" cy="425.12057940343936" r="3.2" fill="#2ca02c"/>
<path d="M 88.00 483.52 L 172.67 481.26 L 257.33 478.60 L 342.00 474.26 L 426.67 468.80 L 511.33 462.42 L 596.00 454.63 L 680.67 445.79 L 765.33 435.55 L 850.00 424.07 L 850.00 424.98 L 765.33 435.84 L 680.67 446.60 L 596.00 455.53 L 511.33 463.17 L 426.67 469.46 L 342.00 475.14 L 257.33 478.98 L 172.67 482.30 L 88.00 483.91 Z" fill="#9467bd" opacity="0.16" stroke="none"/>
<path d="M 88.00 483.72 L 172.67 481.78 L 257.33 478.79 L 342.00 474.70 L 426.67 469.13 L 511.33 462.80 L 596.00 455.08 L 680.67 446.20 L 765.33 435.70 L 850.00 424.52" fill="none" stroke="#9467bd" stroke-width="2.4"/>
<circle cx="88.0" cy="483.71585693885174" r="3.2" fill="#9467bd"/>
<circle cx="172.66666666666666" cy="481.77966450110375" r="3.2" fill="#9467bd"/>
<circle cx="257.3333333333333" cy="478.78982755690976" r="3.2" fill="#9467bd"/>
<circle cx="342.0" cy="474.7022470996231" r="3.2" fill="#9467bd"/>
<circle cx="426.66666666666663" cy="469.13006317394" r="3.2" fill="#9467bd"/>
<circle cx="511.33333333333337" cy="462.79513677278044" r="3.2" fill="#9467bd"/>
<circle cx="596.0" cy="455.0789462063536" r="3.2" fill="#9467bd"/>
<circle cx="680.6666666666666" cy="446.19763338706485" r="3.2" fill="#9467bd"/>
<circle cx="765.3333333333333" cy="435.6967703537186" r="3.2" fill="#9467bd"/>
<circle cx="850.0" cy="424.5224984549268" r="3.2" fill="#9467bd"/>
<path d="M 88.00 483.30 L 172.67 481.30 L 257.33 478.66 L 342.00 473.94 L 426.67 468.97 L 511.33 462.23 L 596.00 454.61 L 680.67 445.70 L 765.33 435.78 L 850.00 424.34 L 850.00 425.03 L 765.33 436.16 L 680.67 446.11 L 596.00 455.28 L 511.33 463.06 L 426.67 469.44 L 342.00 474.81 L 257.33 479.22 L 172.67 482.29 L 88.00 483.97 Z" fill="#ff7f0e" opacity="0.16" stroke="none"/>
<path d="M 88.00 483.63 L 172.67 481.80 L 257.33 478.94 L 342.00 474.37 L 426.67 469.21 L 511.33 462.64 L 596.00 454.94 L 680.67 445.90 L 765.33 435.97 L 850.00 424.69" fill="none" stroke="#ff7f0e" stroke-width="2.4"/>
<circle cx="88.0" cy="483.6314442480173" r="3.2" fill="#ff7f0e"/>
<circle cx="172.66666666666666" cy="481.7961306538001" r="3.2" fill="#ff7f0e"/>
<circle cx="257.3333333333333" cy="478.94464724548044" r="3.2" fill="#ff7f0e"/>
<circle cx="342.0" cy="474.37405964243294" r="3.2" fill="#ff7f0e"/>
<circle cx="426.66666666666663" cy="469.20747301822536" r="3.2" fill="#ff7f0e"/>
<circle cx="511.33333333333337" cy="462.6423990115622" r="3.2" fill="#ff7f0e"/>
<circle cx="596.0" cy="454.94437799293826" r="3.2" fill="#ff7f0e"/>
<circle cx="680.6666666666666" cy="445.90294603363634" r="3.2" fill="#ff7f0e"/>
<circle cx="765.3333333333333" cy="435.96704237728693" r="3.2" fill="#ff7f0e"/>
<circle cx="850.0" cy="424.68564585290716" r="3.2" fill="#ff7f0e"/>
<path d="M 88.00 483.40 L 172.67 481.29 L 257.33 478.62 L 342.00 474.27 L 426.67 468.78 L 511.33 462.41 L 596.00 454.54 L 680.67 445.61 L 765.33 435.30 L 850.00 424.40 L 850.00 424.94 L 765.33 436.13 L 680.67 446.24 L 596.00 455.16 L 511.33 462.78 L 426.67 469.51 L 342.00 474.64 L 257.33 479.36 L 172.67 482.21 L 88.00 483.87 Z" fill="#17becf" opacity="0.16" stroke="none"/>
<path d="M 88.00 483.63 L 172.67 481.75 L 257.33 478.99 L 342.00 474.45 L 426.67 469.15 L 511.33 462.59 L 596.00 454.85 L 680.67 445.93 L 765.33 435.71 L 850.00 424.67" fill="none" stroke="#17becf" stroke-width="2.4"/>
<circle cx="88.0" cy="483.6335261753698" r="3.2" fill="#17becf"/>
<circle cx="172.66666666666666" cy="481.7461643973421" r="3.2" fill="#17becf"/>
<circle cx="257.3333333333333" cy="478.9906389133566" r="3.2" fill="#17becf"/>
<circle cx="342.0" cy="474.4527943495789" r="3.2" fill="#17becf"/>
<circle cx="426.66666666666663" cy="469.14652932663637" r="3.2" fill="#17becf"/>
<circle cx="511.33333333333337" cy="462.59375761796485" r="3.2" fill="#17becf"/>
<circle cx="596.0" cy="454.85258392330894" r="3.2" fill="#17becf"/>
<circle cx="680.6666666666666" cy="445.9279291618654" r="3.2" fill="#17becf"/>
<circle cx="765.3333333333333" cy="435.7122901758002" r="3.2" fill="#17becf"/>
<circle cx="850.0" cy="424.66917970021075" r="3.2" fill="#17becf"/>
<path d="M 88.00 483.60 L 172.67 481.37 L 257.33 478.69 L 342.00 474.04 L 426.67 468.92 L 511.33 462.23 L 596.00 454.82 L 680.67 445.58 L 765.33 435.56 L 850.00 424.02 L 850.00 424.63 L 765.33 436.09 L 680.67 446.44 L 596.00 455.35 L 511.33 463.06 L 426.67 469.69 L 342.00 474.49 L 257.33 479.25 L 172.67 482.39 L 88.00 484.18 Z" fill="#8c564b" opacity="0.16" stroke="none"/>
<path d="M 88.00 483.89 L 172.67 481.88 L 257.33 478.97 L 342.00 474.27 L 426.67 469.31 L 511.33 462.64 L 596.00 455.08 L 680.67 446.01 L 765.33 435.83 L 850.00 424.32" fill="none" stroke="#8c564b" stroke-width="2.4"/>
<circle cx="88.0" cy="483.88752131236464" r="3.2" fill="#8c564b"/>
<circle cx="172.66666666666666" cy="481.8833823364787" r="3.2" fill="#8c564b"/>
<circle cx="257.3333333333333" cy="478.9679269786029" r="3.2" fill="#8c564b"/>
<circle cx="342.0" cy="474.26731354909083" r="3.2" fill="#8c564b"/>
<circle cx="426.66666666666663" cy="469.305134337666" r="3.2" fill="#8c564b"/>
<circle cx="511.33333333333337" cy="462.64334534217693" r="3.2" fill="#8c564b"/>
<circle cx="596.0" cy="455.0821637304437" r="3.2" fill="#8c564b"/>
<circle cx="680.6666666666666" cy="446.0108277237162" r="3.2" fill="#8c564b"/>
<circle cx="765.3333333333333" cy="435.82698544630614" r="3.2" fill="#8c564b"/>
<circle cx="850.0" cy="424.32225489684885" r="3.2" fill="#8c564b"/>
<text x="469.0" y="615" text-anchor="middle" font-family="Arial" font-size="15">T</text>
<text transform="translate(24,306.0) rotate(-90)" text-anchor="middle" font-family="Arial" font-size="15">peak memory (MB)</text>
<rect x="882" y="48" width="18" height="12" fill="#1f77b4" opacity="0.75"/>
<line x1="882" y1="54" x2="900" y2="54" stroke="#1f77b4" stroke-width="2.4"/>
<text x="910" y="59" font-family="Arial" font-size="12">SDP+GW</text>
<rect x="882" y="72" width="18" height="12" fill="#d62728" opacity="0.75"/>
<line x1="882" y1="78" x2="900" y2="78" stroke="#d62728" stroke-width="2.4"/>
<text x="910" y="83" font-family="Arial" font-size="12">Sign-Iteration</text>
<rect x="882" y="96" width="18" height="12" fill="#2ca02c" opacity="0.75"/>
<line x1="882" y1="102" x2="900" y2="102" stroke="#2ca02c" stroke-width="2.4"/>
<text x="910" y="107" font-family="Arial" font-size="12">Box-PGA</text>
<rect x="882" y="120" width="18" height="12" fill="#9467bd" opacity="0.75"/>
<line x1="882" y1="126" x2="900" y2="126" stroke="#9467bd" stroke-width="2.4"/>
<text x="910" y="131" font-family="Arial" font-size="12">LR-SDP r=2</text>
<rect x="882" y="144" width="18" height="12" fill="#ff7f0e" opacity="0.75"/>
<line x1="882" y1="150" x2="900" y2="150" stroke="#ff7f0e" stroke-width="2.4"/>
<text x="910" y="155" font-family="Arial" font-size="12">LR-SDP r=4</text>
<rect x="882" y="168" width="18" height="12" fill="#17becf" opacity="0.75"/>
<line x1="882" y1="174" x2="900" y2="174" stroke="#17becf" stroke-width="2.4"/>
<text x="910" y="179" font-family="Arial" font-size="12">LR-SDP r=6</text>
<rect x="882" y="192" width="18" height="12" fill="#8c564b" opacity="0.75"/>
<line x1="882" y1="198" x2="900" y2="198" stroke="#8c564b" stroke-width="2.4"/>
<text x="910" y="203" font-family="Arial" font-size="12">LR-SDP r=8</text>
</svg>
