<svg xmlns="http://www.w3.org/2000/svg" width="1080" height="640" viewBox="0 0 1080 640">
<rect width="100%" height="100%" fill="white"/>
<text x="88" y="32" font-family="Arial" font-size="21" font-weight="700">Runtime vs T</text>
<line x1="88" y1="554" x2="850" y2="554" stroke="#333" stroke-width="1.2"/>
<line x1="88" y1="58" x2="88" y2="554" stroke="#333" stroke-width="1.2"/>
<line x1="88" y1="554.0" x2="850" y2="554.0" stroke="#e8e8e8"/>
<text x="78" y="558.0" text-anchor="end" font-family="Arial" font-size="12">-10.80</text>
<line x1="88" y1="454.79999999999995" x2="850" y2="454.79999999999995" stroke="#e8e8e8"/>
<text x="78" y="458.79999999999995" text-anchor="end" font-family="Arial" font-size="12">29.52</text>
<line x1="88" y1="355.5999999999999" x2="850" y2="355.5999999999999" stroke="#e8e8e8"/>
<text x="78" y="359.5999999999999" text-anchor="end" font-family="Arial" font-size="12">69.83</text>
<line x1="88" y1="256.4" x2="850" y2="256.4" stroke="#e8e8e8"/>
<text x="78" y="260.4" text-anchor="end" font-family="Arial" font-size="12">110.1</text>
<line x1="88" y1="157.2" x2="850" y2="157.2" stroke="#e8e8e8"/>
<text x="78" y="161.2" text-anchor="end" font-family="Arial" font-size="12">150.5</text>
<line x1="88" y1="58.0" x2="850" y2="58.0" stroke="#e8e8e8"/>
<text x="78" y="62.0" text-anchor="end" font-family="Arial" font-size="12">190.8</text>
<line x1="88.0" y1="554" x2="88.0" y2="559" stroke="#333"/>
<text x="88.0" y="578" text-anchor="middle" font-family="Arial" font-size="12">200</text>
<line x1="172.66666666666666" y1="554" x2="172.66666666666666" y2="559" stroke="#333"/>
<text x="172.66666666666666" y="578" text-anchor="middle" font-family="Arial" font-size="12">400</text>
<line x1="257.3333333333333" y1="554" x2="257.3333333333333" y2="559" stroke="#333"/>
<text x="257.3333333333333" y="578" text-anchor="middle" font-family="Arial" font-size="12">600</text>
<line x1="342.0" y1="554" x2="342.0" y2="559" stroke="#333"/>
<text x="342.0" y="578" text-anchor="middle" font-family="Arial" font-size="12">800</text>
<line x1="426.66666666666663" y1="554" x2="426.66666666666663" y2="559" stroke="#333"/>
<text x="426.66666666666663" y="578" text-anchor="middle" font-family="Arial" font-size="12">1000</text>
<line x1="511.33333333333337" y1="554" x2="511.33333333333337" y2="559" stroke="#333"/>
<text x="511.33333333333337" y="578" text-anchor="middle" font-family="Arial" font-size="12">1200</text>
<line x1="596.0" y1="554" x2="596.0" y2="559" stroke="#333"/>
<text x="596.0" y="578" text-anchor="middle" font-family="Arial" font-size="12">1400</text>
<line x1="680.6666666666666" y1="554" x2="680.6666666666666" y2="559" stroke="#333"/>
<text x="680.6666666666666" y="578" text-anchor="middle" font-family="Arial" font-size="12">1600</text>
<line x1="765.3333333333333" y1="554" x2="765.3333333333333" y2="559" stroke="#333"/>
<text x="765.3333333333333" y="578" text-anchor="middle" font-family="Arial" font-size="12">1800</text>
<line x1="850.0" y1="554" x2="850.0" y2="559" stroke="#333"/>
<text x="850.0" y="578" text-anchor="middle" font-family="Arial" font-size="12">2000</text>
<path d="M 88.00 524.49 L 172.67 521.55 L 257.33 514.96 L 342.00 503.78 L 426.67 481.69 L 511.33 450.10 L 596.00 402.04 L 680.67 334.24 L 765.33 236.70 L 850.00 84.57 L 850.00 93.38 L 765.33 240.14 L 680.67 337.27 L 596.00 404.94 L 511.33 451.65 L 426.67 482.46 L 342.00 504.40 L 257.33 515.64 L 172.67 521.70 L 88.00 524.61 Z" fill="#1f77b4" opacity="0.16" stroke="none"/>
<path d="M 88.00 524.55 L 172.67 521.62 L 257.33 515.30 L 342.00 504.09 L 426.67 482.08 L 511.33 450.88 L 596.00 403.49 L 680.67 335.75 L 765.33 238.42 L 850.00 88.97" fill="none" stroke="#1f77b4" stroke-width="2.4"/>
<circle cx="88.0" cy="524.5501472215786" r="3.2" fill="#1f77b4"/>
<circle cx="172.66666666666666" cy="521.6243189381858" r="3.2" fill="#1f77b4"/>
<circle cx="257.3333333333333" cy="515.2997260632555" r="3.2" fill="#1f77b4"/>
<circle cx="342.0" cy="504.09174950356004" r="3.2" fill="#1f77b4"/>
<circle cx="426.66666666666663" cy="482.0793772715589" r="3.2" fill="#1f77b4"/>
<circle cx="511.33333333333337" cy="450.87550362824925" r="3.2" fill="#1f77b4"/>
<circle cx="596.0" cy="403.49063621525505" r="3.2" fill="#1f77b4"/>
<circle cx="680.6666666666666" cy="335.7530248650436" r="3.2" fill="#1f77b4"/>
<circle cx="765.3333333333333" cy="238.42301798647443" r="3.2" fill="#1f77b4"/>
<circle cx="850.0" cy="88.97455426755778" r="3.2" fill="#1f77b4"/>
<path d="M 88.00 527.10 L 172.67 526.23 L 257.33 525.27 L 342.00 524.07 L 426.67 522.20 L 511.33 518.64 L 596.00 514.82 L 680.67 511.80 L 765.33 506.78 L 850.00 502.42 L 850.00 503.77 L 765.33 507.26 L 680.67 513.02 L 596.00 515.47 L 511.33 519.26 L 426.67 522.72 L 342.00 524.35 L 257.33 525.75 L 172.67 526.38 L 88.00 527.12 Z" fill="#d62728" opacity="0.16" stroke="none"/>
<path d="M 88.00 527.11 L 172.67 526.31 L 257.33 525.51 L 342.00 524.21 L 426.67 522.46 L 511.33 518.95 L 596.00 515.14 L 680.67 512.41 L 765.33 507.02 L 850.00 503.10" fill="none" stroke="#d62728" stroke-width="2.4"/>
<circle cx="88.0" cy="527.1122070695498" r="3.2" fill="#d62728"/>
<circle cx="172.66666666666666" cy="526.3067264426172" r="3.2" fill="#d62728"/>
<circle cx="257.3333333333333" cy="525.5076900857661" r="3.2" fill="#d62728"/>
<circle cx="342.0" cy="524.2079938266319" r="3.2" fill="#d62728"/>
<circle cx="426.66666666666663" cy="522.4621050876103" r="3.2" fill="#d62728"/>
<circle cx="511.33333333333337" cy="518.9522895341008" r="3.2" fill="#d62728"/>
<circle cx="596.0" cy="515.1444416342131" r="3.2" fill="#d62728"/>
<circle cx="680.6666666666666" cy="512.4116537459367" r="3.2" fill="#d62728"/>
<circle cx="765.3333333333333" cy="507.019652484137" r="3.2" fill="#d62728"/>
<circle cx="850.0" cy="503.0971151433371" r="3.2" fill="#d62728"/>
<path d="M 88.00 527.34 L 172.67 527.08 L 257.33 526.85 L 342.00 526.41 L 426.67 525.98 L 511.33 525.06 L 596.00 524.03 L 680.67 523.40 L 765.33 521.91 L 850.00 520.71 L 850.00 521.28 L 765.33 522.11 L 680.67 523.74 L 596.00 524.41 L 511.33 525.50 L 426.67 526.26 L 342.00 526.57 L 257.33 526.99 L 172.67 527.17 L 88.00 527.36 Z" fill="#2ca02c" opacity="0.16" stroke="none"/>
<path d="M 88.00 527.35 L 172.67 527.13 L 257.33 526.92 L 342.00 526.49 L 426.67 526.12 L 511.33 525.28 L 596.00 524.22 L 680.67 523.57 L 765.33 522.01 L 850.00 520.99" fill="none" stroke="#2ca02c" stroke-width="2.4"/>
<circle cx="88.0" cy="527.3503452575378" r="3.2" fill="#2ca02c"/>
<circle cx="172.66666666666666" cy="527.1290868971086" r="3.2" fill="#2ca02c"/>
<circle cx="257.3333333333333" cy="526.918673010673" r="3.2" fill="#2ca02c"/>
<circle cx="342.0" cy="526.4927239701362" r="3.2" fill="#2ca02c"/>
<circle cx="426.66666666666663" cy="526.1202261260084" r="3.2" fill="#2ca02c"/>
<circle cx="511.33333333333337" cy="525.279426034792" r="3.2" fill="#2ca02c"/>
<circle cx="596.0" cy="524.221684896007" r="3.2" fill="#2ca02c"/>
<circle cx="680.6666666666666" cy="523.5661103935129" r="3.2" fill="#2ca02c"/>
<circle cx="765.3333333333333" cy="522.0055238918003" r="3.2" fill="#2ca02c"/>
<circle cx="850.0" cy="520.9948954822955" r="3.2" fill="#2ca02c"/>
<path d="M 88.00 526.83 L 172.67 526.41 L 257.33 526.20 L 342.00 525.07 L 426.67 523.58 L 511.33 521.28 L 596.00 516.15 L 680.67 515.50 L 765.33 511.10 L 850.00 506.71 L 850.00 508.69 L 765.33 512.10 L 680.67 516.38 L 596.00 519.60 L 511.33 521.69 L 426.67 523.96 L 342.00 525.37 L 257.33 526.29 L 172.67 526.47 L 88.00 526.88 Z" fill="#9467bd" opacity="0.16" stroke="none"/>
<path d="M 88.00 526.86 L 172.67 526.44 L 257.33 526.24 L 342.00 525.22 L 426.67 523.77 L 511.33 521.49 L 596.00 517.87 L 680.67 515.94 L 765.33 511.60 L 850.00 507.70" fill="none" stroke="#9467bd" stroke-width="2.4"/>
<circle cx="88.0" cy="526.8573524007572" r="3.2" fill="#9467bd"/>
<circle cx="172.66666666666666" cy="526.440068218345" r="3.2" fill="#9467bd"/>
<circle cx="257.3333333333333" cy="526.2440398967308" r="3.2" fill="#9467bd"/>
<circle cx="342.0" cy="525.2212117023083" r="3.2" fill="#9467bd"/>
<circle cx="426.66666666666663" cy="523.7744996550471" r="3.2" fill="#9467bd"/>
<circle cx="511.33333333333337" cy="521.4852050129412" r="3.2" fill="#9467bd"/>
<circle cx="596.0" cy="517.871428730713" r="3.2" fill="#9467bd"/>
<circle cx="680.6666666666666" cy="515.9378633438344" r="3.2" fill="#9467bd"/>
<circle cx="765.3333333333333" cy="511.60199581439593" r="3.2" fill="#9467bd"/>
<circle cx="850.0" cy="507.69901613253035" r="3.2" fill="#9467bd"/>
<path d="M 88.00 526.96 L 172.67 526.74 L 257.33 526.31 L 342.00 525.28 L 426.67 523.95 L 511.33 521.94 L 596.00 519.09 L 680.67 515.99 L 765.33 513.80 L 850.00 510.22 L 850.00 510.70 L 765.33 515.61 L 680.67 517.42 L 596.00 520.06 L 511.33 522.27 L 426.67 524.23 L 342.00 525.56 L 257.33 526.34 L 172.67 526.88 L 88.00 526.99 Z" fill="#ff7f0e" opacity="0.16" stroke="none"/>
<path d="M 88.00 526.97 L 172.67 526.81 L 257.33 526.33 L 342.00 525.42 L 426.67 524.09 L 511.33 522.11 L 596.00 519.57 L 680.67 516.70 L 765.33 514.71 L 850.00 510.46" fill="none" stroke="#ff7f0e" stroke-width="2.4"/>
<circle cx="88.0" cy="526.9741599549881" r="3.2" fill="#ff7f0e"/>
<circle cx="172.66666666666666" cy="526.8078238270909" r="3.2" fill="#ff7f0e"/>
<circle cx="257.3333333333333" cy="526.3280595682581" r="3.2" fill="#ff7f0e"/>
<circle cx="342.0" cy="525.4195688118205" r="3.2" fill="#ff7f0e"/>
<circle cx="426.66666666666663" cy="524.0892583761795" r="3.2" fill="#ff7f0e"/>
<circle cx="511.33333333333337" cy="522.1077076030383" r="3.2" fill="#ff7f0e"/>
<circle cx="596.0" cy="519.5710589407045" r="3.2" fill="#ff7f0e"/>
<circle cx="680.6666666666666" cy="516.704880539892" r="3.2" fill="#ff7f0e"/>
<circle cx="765.3333333333333" cy="514.707228311763" r="3.2" fill="#ff7f0e"/>
<circle cx="850.0" cy="510.4616902002903" r="3.2" fill="#ff7f0e"/>
<path d="M 88.00 526.98 L 172.67 526.56 L 257.33 525.70 L 342.00 524.71 L 426.67 523.17 L 511.33 521.01 L 596.00 518.08 L 680.67 515.05 L 765.33 511.51 L 850.00 507.63 L 850.00 508.70 L 765.33 513.50 L 680.67 516.01 L 596.00 519.09 L 511.33 521.38 L 426.67 523.46 L 342.00 524.97 L 257.33 526.11 L 172.67 526.74 L 88.00 527.00 Z" fill="#17becf" opacity="0.16" stroke="none"/>
<path d="M 88.00 526.99 L 172.67 526.65 L 257.33 525.91 L 342.00 524.84 L 426.67 523.31 L 511.33 521.20 L 596.00 518.59 L 680.67 515.53 L 765.33 512.51 L 850.00 508.16" fill="none" stroke="#17becf" stroke-width="2.4"/>
<circle cx="88.0" cy="526.9884831742058" r="3.2" fill="#17becf"/>
<circle cx="172.66666666666666" cy="526.6527110861339" r="3.2" fill="#17becf"/>
<circle cx="257.3333333333333" cy="525.9073770311195" r="3.2" fill="#17becf"/>
<circle cx="342.0" cy="524.843817529016" r="3.2" fill="#17becf"/>
<circle cx="426.66666666666663" cy="523.3124970168501" r="3.2" fill="#17becf"/>
<circle cx="511.33333333333337" cy="521.1956490592087" r="3.2" fill="#17becf"/>
<circle cx="596.0" cy="518.5852627531278" r="3.2" fill="#17becf"/>
<circle cx="680.6666666666666" cy="515.5282204336888" r="3.2" fill="#17becf"/>
<circle cx="765.3333333333333" cy="512.5077418310361" r="3.2" fill="#17becf"/>
<circle cx="850.0" cy="508.16456311719577" r="3.2" fill="#17becf"/>
<path d="M 88.00 527.15 L 172.67 526.88 L 257.33 526.20 L 342.00 525.47 L 426.67 524.37 L 511.33 522.72 L 596.00 520.88 L 680.67 518.28 L 765.33 514.34 L 850.00 512.01 L 850.00 512.88 L 765.33 517.19 L 680.67 519.15 L 596.00 521.10 L 511.33 522.98 L 426.67 524.54 L 342.00 525.66 L 257.33 526.38 L 172.67 526.90 L 88.00 527.16 Z" fill="#8c564b" opacity="0.16" stroke="none"/>
<path d="M 88.00 527.15 L 172.67 526.89 L 257.33 526.29 L 342.00 525.56 L 426.67 524.46 L 511.33 522.85 L 596.00 520.99 L 680.67 518.72 L 765.33 515.77 L 850.00 512.44" fill="none" stroke="#8c564b" stroke-width="2.4"/>
<circle cx="88.0" cy="527.1532625824892" r="3.2" fill="#8c564b"/>
<circle cx="172.66666666666666" cy="526.8907924251232" r="3.2" fill="#8c564b"/>
<circle cx="257.3333333333333" cy="526.2889155463081" r="3.2" fill="#8c564b"/>
<circle cx="342.0" cy="525.5644993564551" r="3.2" fill="#8c564b"/>
<circle cx="426.66666666666663" cy="524.4566470401894" r="3.2" fill="#8c564b"/>
<circle cx="511.33333333333337" cy="522.8501525907802" r="3.2" fill="#8c564b"/>
<circle cx="596.0" cy="520.9911621078004" r="3.2" fill="#8c564b"/>
<circle cx="680.6666666666666" cy="518.7155881003507" r="3.2" fill="#8c564b"/>
<circle cx="765.3333333333333" cy="515.7671690591599" r="3.2" fill="#8c564b"/>
<circle cx="850.0" cy="512.4419827904146" r="3.2" fill="#8c564b"/>
<text x="469.0" y="615" text-anchor="middle" font-family="Arial" font-size="15">T</text>
<text transform="translate(24,306.0) rotate(-90)" text-anchor="middle" font-family="Arial" font-size="15">time (s)</text>
<rect x="882" y="48" width="18" height="12" fill="#1f77b4" opacity="0.75"/>
<line x1="882" y1="54" x2="900" y2="54" stroke="#1f77b4" stroke-width="2.4"/>
<text x="910" y="59" font-family="Arial" font-size="12">SDP+GW</text>
<rect x="882" y="72" width="18" height="12" fill="#d62728" opacity="0.75"/>
<line x1="882" y1="78" x2="900" y2="78" stroke="#d62728" stroke-width="2.4"/>
<text x="910" y="83" font-family="Arial" font-size="12">Sign-Iteration</text>
<rect x="882" y="96" width="18" height="12" fill="#2ca02c" opacity="0.75"/>
<line x1="882" y1="102" x2="900" y2="102" stroke="#2ca02c" stroke-width="2.4"/>
<text x="910" y="107" font-family="Arial" font-size="12">Box-PGA</text>
<rect x="882" y="120" width="18" height="12" fill="#9467bd" opacity="0.75"/>
<line x1="882" y1="126" x2="900" y2="126" stroke="#9467bd" stroke-width="2.4"/>
<text x="910" y="131" font-family="Arial" font-size="12">LR-SDP r=2</text>
<rect x="882" y="144" width="18" height="12" fill="#ff7f0e" opacity="0.75"/>
<line x1="882" y1="150" x2="900" y2="150" stroke="#ff7f0e" stroke-width="2.4"/>
<text x="910" y="155" font-family="Arial" font-size="12">LR-SDP r=4</text>
<rect x="882" y="168" width="18" height="12" fill="#17becf" opacity="0.75"/>
<line x1="882" y1="174" x2="900" y2="174" stroke="#17becf" stroke-width="2.4"/>
<text x="910" y="179" font-family="Arial" font-size="12">LR-SDP r=6</text>
<rect x="882" y="192" width="18" height="12" fill="#8c564b" opacity="0.75"/>
<line x1="882" y1="198" x2="900" y2="198" stroke="#8c564b" stroke-width="2.4"/>
<text x="910" y="203" font-family="Arial" font-size="12">LR-SDP r=8</text>
</svg>
