<svg xmlns="http://www.w3.org/2000/svg" width="920" height="540" viewBox="0 0 920 540">
<rect width="100%" height="100%" fill="white"/>
<text x="86" y="32" font-family="Arial" font-size="20" font-weight="700">LR-SDP r=4 Initialization Seed Ablation</text>
<line x1="86" y1="458" x2="730" y2="458" stroke="#333" stroke-width="1.2"/>
<line x1="86" y1="58" x2="86" y2="458" stroke="#333" stroke-width="1.2"/>
<line x1="81" y1="458.0" x2="86" y2="458.0" stroke="#333"/>
<line x1="86" y1="458.0" x2="730" y2="458.0" stroke="#e8e8e8"/>
<text x="76" y="462.0" text-anchor="end" font-family="Arial" font-size="12">5435</text>
<line x1="81" y1="358.0000000000003" x2="86" y2="358.0000000000003" stroke="#333"/>
<line x1="86" y1="358.0000000000003" x2="730" y2="358.0000000000003" stroke="#e8e8e8"/>
<text x="76" y="362.0000000000003" text-anchor="end" font-family="Arial" font-size="12">5578</text>
<line x1="81" y1="258.0" x2="86" y2="258.0" stroke="#333"/>
<line x1="86" y1="258.0" x2="730" y2="258.0" stroke="#e8e8e8"/>
<text x="76" y="262.0" text-anchor="end" font-family="Arial" font-size="12">5721</text>
<line x1="81" y1="157.99999999999966" x2="86" y2="157.99999999999966" stroke="#333"/>
<line x1="86" y1="157.99999999999966" x2="730" y2="157.99999999999966" stroke="#e8e8e8"/>
<text x="76" y="161.99999999999966" text-anchor="end" font-family="Arial" font-size="12">5864</text>
<line x1="81" y1="58.0" x2="86" y2="58.0" stroke="#333"/>
<line x1="86" y1="58.0" x2="730" y2="58.0" stroke="#e8e8e8"/>
<text x="76" y="62.0" text-anchor="end" font-family="Arial" font-size="12">6007</text>
<line x1="86.0" y1="458" x2="86.0" y2="463" stroke="#333"/>
<text x="86.0" y="482" text-anchor="middle" font-family="Arial" font-size="12">5.000</text>
<line x1="247.0" y1="458" x2="247.0" y2="463" stroke="#333"/>
<text x="247.0" y="482" text-anchor="middle" font-family="Arial" font-size="12">11.2</text>
<line x1="408.0" y1="458" x2="408.0" y2="463" stroke="#333"/>
<text x="408.0" y="482" text-anchor="middle" font-family="Arial" font-size="12">17.5</text>
<line x1="569.0" y1="458" x2="569.0" y2="463" stroke="#333"/>
<text x="569.0" y="482" text-anchor="middle" font-family="Arial" font-size="12">23.8</text>
<line x1="730.0" y1="458" x2="730.0" y2="463" stroke="#333"/>
<text x="730.0" y="482" text-anchor="middle" font-family="Arial" font-size="12">30.0</text>
<path d="M 86.0 258.0 L 214.8 258.0 L 343.6 258.0 L 472.4 258.0 L 601.2 258.0 L 730.0 258.0" fill="none" stroke="#1f77b4" stroke-width="2.3"/>
<circle cx="86.0" cy="258.0" r="2.8" fill="#1f77b4"/>
<circle cx="214.8" cy="258.0" r="2.8" fill="#1f77b4"/>
<circle cx="343.6" cy="258.0" r="2.8" fill="#1f77b4"/>
<circle cx="472.4" cy="258.0" r="2.8" fill="#1f77b4"/>
<circle cx="601.2" cy="258.0" r="2.8" fill="#1f77b4"/>
<circle cx="730.0" cy="258.0" r="2.8" fill="#1f77b4"/>
<text x="408.0" y="516" text-anchor="middle" font-family="Arial" font-size="14">number of initial seeds K</text>
<text transform="translate(24,258.0) rotate(-90)" text-anchor="middle" font-family="Arial" font-size="14">max binary objective over first K seeds</text>
<line x1="758" y1="58" x2="778" y2="58" stroke="#1f77b4" stroke-width="2.3"/>
<text x="788" y="62" font-family="Arial" font-size="12">T=2000</text>
</svg>
